<svg width="82" height="86" viewBox="0 0 82 86" fill="none" xmlns="http://www.w3.org/2000/svg">
<path fill-rule="evenodd" clip-rule="evenodd" d="M42.6417 3.65424C51.7774 2.09411 61.6358 -2.82321 69.3612 2.21401C77.7386 7.67639 82.2853 18.7074 80.6807 28.457C79.1932 37.4949 69.1644 41.629 61.925 47.3964C55.8728 52.2178 50.2617 57.1583 42.6417 58.7607C32.5411 60.8847 19.6596 65.3458 12.8516 57.7158C6.01894 50.0583 13.3166 38.3883 15.6026 28.457C17.1712 21.6423 18.6388 14.757 23.8375 9.98818C28.8719 5.37016 35.8549 4.81324 42.6417 3.65424Z" fill="url(#paint0_linear_1_27436)"/>
<path d="M77.1851 25.3007H67.4697C67.4733 25.1591 67.4751 25.0165 67.4751 24.874C67.4751 14.4672 59.0618 6 48.7194 6C38.3779 6 29.9638 14.4663 29.9638 24.874C29.9638 25.0165 29.9664 25.1591 29.9691 25.3007H18.8848L16.3197 14.6088C15.9554 13.0914 15.128 11.7855 13.9264 10.8337C12.7205 9.87824 11.266 9.37273 9.71984 9.37273H3.84055C1.72344 9.37273 0 11.1062 0 13.2375C0 15.368 1.72255 17.1014 3.84055 17.1014H9.03402L18.4261 56.2513C17.2914 56.7909 16.2449 57.5303 15.3551 58.4257C13.295 60.4988 12.1603 63.2468 12.1603 66.1651C12.1603 69.0826 13.295 71.8315 15.3551 73.9046C16.9957 75.5556 19.0896 76.623 21.3448 76.9816C21.7189 82.0169 25.9068 86 31.005 86C36.0568 86 40.2153 82.0895 40.6553 77.1187H52.5252C52.9643 82.0895 57.1237 86 62.1756 86C67.5187 86 71.866 81.6252 71.866 76.2484C71.866 70.8716 67.5187 66.4968 62.1756 66.4968C59.4876 66.4968 57.0516 67.6046 55.2943 69.39H37.8862C36.129 67.6046 33.6939 66.4968 31.005 66.4968C28.3169 66.4968 25.881 67.6046 24.1237 69.39H23.0451C22.1963 69.39 21.3938 69.0521 20.7846 68.4399C20.1754 67.8269 19.8405 67.0193 19.8405 66.1651C19.8405 65.311 20.1763 64.5034 20.7846 63.8904C21.3938 63.2773 22.1963 62.9394 23.0451 62.9394H39.8074C41.5121 62.9394 42.9586 61.8029 43.4369 60.2434H63.5677C65.9493 60.2434 68.2099 59.4995 70.1061 58.0914C71.9898 56.6923 73.357 54.7384 74.0615 52.4403L80.7745 30.5395C80.941 30.1003 81.0256 29.6378 81.0256 29.1637C81.0256 27.0341 79.3022 25.3007 77.1851 25.3007ZM48.7203 8.54815C57.6662 8.54815 64.9438 15.8717 64.9438 24.874C64.9438 33.8764 57.6662 41.1999 48.7203 41.1999C39.7745 41.1999 32.4968 33.8764 32.4968 24.874C32.4968 15.8717 39.7745 8.54815 48.7203 8.54815ZM61.2974 57.6961H49.9859V49.3418H61.2965L61.2974 57.6961ZM39.8083 55.2116H36.1432V49.3418H47.4538V57.6961H43.3656C42.8259 56.2468 41.4347 55.2116 39.8083 55.2116ZM47.4538 46.7937H36.1432V38.8633C39.1795 41.6301 43.1171 43.412 47.4538 43.7042V46.7937ZM33.611 46.7937H24.0408L22.0618 38.5433H33.611V46.7937ZM33.611 49.3418V55.2116H26.06L24.6518 49.3418H33.611ZM49.9859 46.7937V43.7042C54.3226 43.412 58.2602 41.6301 61.2965 38.8633V46.7937H49.9859ZM63.8287 38.5433H75.6718L73.1432 46.7937H63.8287V38.5433ZM30.198 27.8488C30.6736 30.8594 31.8591 33.6344 33.5754 35.9952H21.4499L19.4958 27.8488H30.198ZM62.1756 69.0449C66.123 69.0449 69.3339 72.276 69.3339 76.2484C69.3339 80.2207 66.1221 83.4519 62.1756 83.4519C58.2282 83.4519 55.0173 80.2207 55.0173 76.2484C55.0173 72.276 58.2282 69.0449 62.1756 69.0449ZM53.4863 71.9381C53.0828 72.7573 52.7924 73.642 52.6312 74.5705H40.5493C40.3881 73.642 40.0978 72.7573 39.6943 71.9381H53.4863ZM31.005 69.0449C34.9524 69.0449 38.1632 72.276 38.1632 76.2484C38.1632 80.2207 34.9515 83.4519 31.005 83.4519C27.0584 83.4519 23.8467 80.2207 23.8467 76.2484C23.8467 72.276 27.0584 69.0449 31.005 69.0449ZM41.0739 59.1185C41.0739 59.8212 40.5057 60.3922 39.8083 60.3922H23.046C21.5212 60.3922 20.0827 60.9945 18.9952 62.0888C17.9077 63.1832 17.3092 64.6307 17.3092 66.1651C17.3092 67.6996 17.9077 69.1471 18.9952 70.2415C19.9126 71.1646 21.0812 71.7365 22.3397 71.8924C21.9469 72.6812 21.6565 73.5308 21.4882 74.4226C19.8556 74.1098 18.3442 73.3077 17.1462 72.1022C15.5644 70.5104 14.6933 68.4023 14.6933 66.1651C14.6933 63.928 15.5644 61.819 17.1462 60.2272C18.0413 59.3265 19.1413 58.6318 20.3277 58.2187C20.9431 58.0035 21.2967 57.3537 21.1435 56.7165L11.3319 15.8224C11.1494 15.0633 10.5018 14.5533 9.72073 14.5533H3.84055C3.11911 14.5533 2.53216 13.9626 2.53216 13.2366C2.53216 12.5106 3.11911 11.92 3.84055 11.92H9.72073C10.6924 11.92 11.6054 12.2364 12.3607 12.8351C13.1115 13.4302 13.629 14.2494 13.8588 15.2058L23.8333 56.7837C23.9705 57.3555 24.4791 57.7589 25.0642 57.7589H39.8092C40.5075 57.7589 41.0748 58.3307 41.0748 59.0325L41.0739 59.1185ZM68.6026 56.0416C67.2141 57.0723 65.569 57.6396 63.8287 57.6907V49.3409H72.3621L71.6425 51.6901C71.0983 53.4638 70.0473 54.9687 68.6026 56.0416ZM78.4017 29.6513C78.3893 29.6826 78.3786 29.714 78.3688 29.7463L76.4538 35.9952H63.8643C65.5806 33.6344 66.7661 30.8594 67.2417 27.8488H77.1851C77.9065 27.8488 78.4935 28.4395 78.4935 29.1655C78.4935 29.334 78.4623 29.4971 78.4017 29.6513ZM31.005 80.9745C33.5941 80.9745 35.7014 78.8548 35.7014 76.2484C35.7014 73.6429 33.595 71.5223 31.005 71.5223C28.4158 71.5223 26.3085 73.642 26.3085 76.2484C26.3094 78.8548 28.4158 80.9745 31.005 80.9745ZM31.005 74.0713C32.1985 74.0713 33.1693 75.0483 33.1693 76.2493C33.1693 77.4503 32.1985 78.4273 31.005 78.4273C29.8115 78.4273 28.8406 77.4503 28.8406 76.2493C28.8406 75.0483 29.8124 74.0713 31.005 74.0713ZM62.1756 80.9745C64.7648 80.9745 66.8721 78.8548 66.8721 76.2484C66.8721 73.6429 64.7656 71.5223 62.1756 71.5223C59.5864 71.5223 57.4791 73.642 57.4791 76.2484C57.4791 78.8548 59.5864 80.9745 62.1756 80.9745ZM62.1756 74.0713C63.3691 74.0713 64.3399 75.0483 64.3399 76.2493C64.3399 77.4503 63.3691 78.4273 62.1756 78.4273C60.9821 78.4273 60.0113 77.4503 60.0113 76.2493C60.0113 75.0483 60.9821 74.0713 62.1756 74.0713ZM48.7203 32.0802C46.89 32.0802 45.4008 33.5788 45.4008 35.4207C45.4008 37.2625 46.89 38.7611 48.7203 38.7611C50.5506 38.7611 52.0398 37.2625 52.0398 35.4207C52.0398 33.5788 50.5506 32.0802 48.7203 32.0802ZM48.7203 36.213C48.2866 36.213 47.933 35.8572 47.933 35.4207C47.933 34.9842 48.2866 34.6283 48.7203 34.6283C49.1541 34.6283 49.5077 34.9842 49.5077 35.4207C49.5077 35.8581 49.1541 36.213 48.7203 36.213ZM43.6631 22.757C45.4934 22.757 46.9826 21.2584 46.9826 19.4165C46.9826 18.9496 47.1634 18.5104 47.4912 18.1797C47.819 17.8489 48.2554 17.6679 48.7203 17.6679C49.1843 17.6679 49.6208 17.8498 49.9494 18.1797C50.2772 18.5095 50.458 18.9487 50.458 19.4165C50.458 19.7518 50.3663 20.0753 50.1917 20.3514C50.0109 20.6382 49.757 20.8649 49.4578 21.0066C48.2269 21.5891 47.1999 22.4926 46.4901 23.6192C45.7775 24.7495 45.4008 26.0688 45.4008 27.4347V28.4547C45.4008 30.2966 46.89 31.7952 48.7203 31.7952C50.5506 31.7952 52.0398 30.2966 52.0398 28.4547V27.4347C52.0398 27.3352 52.0585 27.251 52.0933 27.1963C52.1307 27.1363 52.1975 27.0834 52.2847 27.0413C53.7276 26.3583 54.9416 25.2818 55.7949 23.9293C56.6472 22.5786 57.097 21.0182 57.097 19.4174C57.097 17.166 56.2259 15.0498 54.6432 13.4571C53.0614 11.8644 50.9577 10.9878 48.7203 10.9878C46.483 10.9878 44.3792 11.8644 42.7974 13.4571C41.2147 15.0498 40.3436 17.166 40.3436 19.4174C40.3436 21.2584 41.8328 22.757 43.6631 22.757ZM44.5876 15.2578C45.6912 14.1473 47.159 13.5351 48.7203 13.5351C50.2816 13.5351 51.7486 14.1473 52.853 15.2578C53.9574 16.3683 54.5649 17.8453 54.5649 19.4165C54.5649 20.5333 54.2505 21.6214 53.6564 22.5634C53.0605 23.5072 52.2135 24.2583 51.2062 24.736C50.6833 24.9834 50.2505 25.3625 49.9548 25.8313C49.6617 26.2956 49.5068 26.8504 49.5068 27.4347V28.4547C49.5068 28.8912 49.1532 29.247 48.7194 29.247C48.2857 29.247 47.9321 28.8912 47.9321 28.4547V27.4347C47.9321 26.5528 48.1725 25.7058 48.6277 24.9843C49.0801 24.2673 49.7401 23.6891 50.5355 23.3118C51.2703 22.964 51.8902 22.4128 52.3284 21.7173C52.7604 21.0317 52.9893 20.2366 52.9893 19.4165C52.9893 18.2684 52.5448 17.1893 51.7388 16.3781C50.9327 15.567 49.8604 15.1197 48.7194 15.1197C47.5785 15.1197 46.5061 15.567 45.7001 16.3781C44.894 17.1893 44.4496 18.2684 44.4496 19.4165C44.4496 19.853 44.096 20.2089 43.6622 20.2089C43.2285 20.2089 42.8749 19.853 42.8749 19.4165C42.8758 17.8462 43.4832 16.3692 44.5876 15.2578Z" fill="#C2C26F"/>
<defs>
<linearGradient id="paint0_linear_1_27436" x1="50.1795" y1="62" x2="82.2773" y2="32.3844" gradientUnits="userSpaceOnUse">
<stop stop-color="#EDE574"/>
<stop offset="1" stop-color="#E1F5C4"/>
</linearGradient>
</defs>
</svg>
