<svg width="92" height="71" viewBox="0 0 92 71" fill="none" xmlns="http://www.w3.org/2000/svg">
<path fill-rule="evenodd" clip-rule="evenodd" d="M56.1344 9.04492C64.2904 10.3383 70.3466 15.8897 76.4428 21.4133C82.9853 27.3415 92.1266 32.7564 91.9987 41.5412C91.8712 50.2936 82.6651 55.511 75.8647 61.0962C69.9641 65.9425 63.7963 71.1426 56.1344 70.997C48.5777 70.8535 42.6537 65.4906 37.1462 60.3606C31.387 54.9962 26.0054 49.2331 24.511 41.5412C22.6585 32.0065 21.2881 20.7344 28.0893 13.7455C34.9316 6.71434 46.402 7.50156 56.1344 9.04492Z" fill="url(#paint0_linear_1_27452)"/>
<path fill-rule="evenodd" clip-rule="evenodd" d="M18.9505 7.68877C18.9055 8.64977 18.0915 9.39177 17.1305 9.34777C16.1695 9.30277 15.4275 8.48777 15.4715 7.52777C15.5165 6.56677 16.3305 5.82477 17.2915 5.86877C18.2525 5.91377 18.9955 6.72777 18.9505 7.68877ZM88.4325 36.6188L83.2066 38.6448C82.7416 38.8248 82.2576 38.9148 81.7726 38.9148C81.2256 38.9148 80.6786 38.8008 80.1616 38.5728C79.1866 38.1428 78.4396 37.3618 78.0555 36.3728L77.5826 35.1518L73.2435 36.9618C73.4555 38.1428 73.2845 39.3938 72.6705 40.5108C71.9665 41.7898 70.8016 42.7168 69.3895 43.1208C69.3146 43.1418 69.2395 43.1618 69.1646 43.1798C69.6446 44.5818 69.5585 46.1668 68.7965 47.5518C68.0985 48.8208 66.9436 49.7438 65.5455 50.1498C64.7875 50.3698 64.0085 50.4238 63.2515 50.3148C63.3285 51.3278 63.1235 52.3688 62.6025 53.3168C61.9005 54.5928 60.7405 55.5178 59.3335 55.9228C58.4345 56.1818 57.5075 56.2058 56.6255 56.0038C56.6645 56.9608 56.4535 57.9378 55.9615 58.8318C55.2595 60.1078 54.0495 61.0658 52.6405 61.4608C52.1535 61.5968 51.6605 61.6648 51.1725 61.6648C50.2575 61.6648 49.3595 61.4278 48.5505 60.9638L47.0725 60.1148C46.3635 61.1298 45.3395 61.8758 44.1305 62.2418C43.5945 62.4038 43.0475 62.4848 42.5035 62.4848C41.6025 62.4848 40.7115 62.2638 39.8975 61.8288C38.6745 61.1748 37.7755 60.1138 37.3135 58.8768C35.7955 59.5388 34.0055 59.5168 32.4615 58.6908C31.3635 58.1038 30.5225 57.1778 30.0285 56.0898C28.4305 56.9728 26.4345 57.0578 24.7135 56.1368C23.4075 55.4388 22.4515 54.2698 22.0195 52.8458C21.7685 52.0168 21.7135 51.1608 21.8485 50.3328C20.8965 50.3648 19.9285 50.1518 19.0515 49.6828C17.7455 48.9848 16.7895 47.8158 16.3575 46.3918C15.9255 44.9678 16.0725 43.4638 16.7705 42.1588L18.1875 39.5098C17.8685 38.7608 17.7135 37.9388 17.5645 37.1358C17.2915 35.6708 17.0785 34.7638 16.4155 34.5058C16.0345 34.3578 15.0435 33.9268 13.3325 33.1638L12.7485 34.4858C12.0915 35.9718 10.6305 36.8578 9.10155 36.8578C8.56455 36.8578 8.01955 36.7488 7.49755 36.5178L2.37155 34.2518C0.363546 33.3648 -0.547453 31.0088 0.339547 29.0018L12.1095 2.37177C12.5385 1.40177 13.3215 0.655767 14.3155 0.271767C15.3095 -0.113233 16.3905 -0.0882323 17.3605 0.340768L22.4865 2.60677C24.4945 3.49377 25.4055 5.84877 24.5185 7.85677L23.6165 9.89677L26.9955 11.4558C27.0305 11.4718 27.0635 11.4888 27.0975 11.5078C28.8785 12.5098 31.0915 12.0348 33.6535 11.4848C36.9545 10.7758 41.0085 9.90677 44.9525 12.5198C51.1925 8.67977 55.9915 10.6368 59.5345 12.0848C62.1225 13.1428 63.7906 13.7488 65.4016 12.9108L68.3485 11.3328L67.5325 9.22777C67.1495 8.23877 67.1745 7.15777 67.6045 6.18277C68.0345 5.20777 68.8156 4.46077 69.8046 4.07677L75.0305 2.05077C76.0195 1.66677 77.1005 1.69277 78.0755 2.12277C79.0505 2.55277 79.7975 3.33477 80.1815 4.32277L90.7046 31.4678C91.4986 33.5148 90.4785 35.8248 88.4325 36.6188ZM21.9185 6.70677C22.1725 6.13277 21.9115 5.45977 21.3375 5.20577L16.2115 2.93977C15.6385 2.68677 14.9645 2.94677 14.7105 3.52077L2.94055 30.1488C2.68655 30.7228 2.94755 31.3958 3.52155 31.6498L8.64755 33.9158C9.22055 34.1688 9.89455 33.9088 10.1485 33.3348L21.9185 6.70677ZM23.3515 46.9138L26.7135 41.0948C27.2775 39.8008 26.7555 38.2798 25.5075 37.6138C24.1845 36.9078 22.5355 37.4078 21.8295 38.7278L19.2775 43.4988C18.9375 44.1348 18.8665 44.8688 19.0775 45.5668C19.2885 46.2648 19.7555 46.8358 20.3915 47.1758C21.3425 47.6838 22.5065 47.5738 23.3515 46.9138ZM29.7385 52.5008L33.4515 45.3118C33.6825 44.1508 33.1205 42.9328 32.0755 42.3748C31.1165 41.8628 29.9445 41.9778 29.0995 42.6488L24.9405 49.9528C24.6005 50.5888 24.5295 51.3228 24.7405 52.0208C24.9515 52.7188 25.4185 53.2898 26.0545 53.6298C27.3735 54.3358 29.0255 53.8288 29.7385 52.5008ZM37.2455 55.4308L40.5395 49.0998C40.7695 47.9398 40.2075 46.7228 39.1635 46.1648C38.1215 45.6088 36.8045 45.8108 35.9695 46.6348L32.3785 53.5888C32.3035 54.6538 32.8575 55.6778 33.8045 56.1838C34.9775 56.8118 36.4425 56.4858 37.2455 55.4308ZM44.9165 58.2068L47.3635 53.6318C47.7035 52.9958 47.7735 52.2598 47.5605 51.5608C47.3475 50.8638 46.8825 50.2928 46.2495 49.9548C45.2075 49.3978 43.8895 49.6008 43.0535 50.4268L39.8215 56.6378C39.7065 57.7358 40.2585 58.7968 41.2395 59.3208C41.8755 59.6608 42.6095 59.7318 43.3075 59.5198C44.0045 59.3088 44.5765 58.8428 44.9165 58.2068ZM52.4795 53.9438L50.5035 52.8338C50.4405 53.5738 50.2285 54.2998 49.8685 54.9728L48.4495 57.6268L49.9665 58.4978C50.5395 58.8268 51.2165 58.9068 51.8735 58.7228C52.5525 58.5328 53.1345 58.0728 53.4705 57.4608C54.1515 56.2248 53.7055 54.6568 52.4795 53.9438ZM69.1376 35.6018L55.2395 27.6798C52.8595 26.3238 49.9015 27.5208 46.4765 28.9078C41.4455 30.9448 35.1845 33.4798 29.8315 26.5918C29.4955 26.1608 29.3615 25.6038 29.4645 25.0658C29.5675 24.5278 29.8995 24.0598 30.3735 23.7828C34.2976 21.4928 37.6105 18.9938 40.2225 16.3538C40.9505 15.6188 41.6845 14.9468 42.4195 14.3408C39.7795 13.0768 37.0795 13.6548 34.2495 14.2628C31.4035 14.8738 28.4605 15.5058 25.7555 14.0138L22.4675 12.4968L14.4825 30.5618C16.1185 31.2908 17.1135 31.7248 17.4445 31.8538C19.4165 32.6198 19.9525 34.5308 20.2635 36.1098C21.9485 34.4008 24.6235 33.9198 26.8465 35.1058C28.4885 35.9818 29.5185 37.5818 29.7395 39.3158C30.9645 39.0788 32.2635 39.2528 33.4145 39.8668C34.7925 40.6028 35.7535 41.8498 36.1495 43.2758C37.5535 42.8158 39.1235 42.9218 40.5005 43.6568C41.8785 44.3928 42.8395 45.6398 43.2355 47.0658C44.6405 46.6048 46.2105 46.7118 47.5875 47.4478C48.2765 47.8158 48.8675 48.3168 49.3365 48.9178L56.5905 52.9738C57.1865 53.3048 57.8815 53.3818 58.5475 53.1908C59.2215 52.9968 59.7775 52.5548 60.1115 51.9468C60.7945 50.7048 60.3305 49.1208 59.0775 48.4138L48.8035 42.6028C48.1205 42.2148 47.8815 41.3478 48.2695 40.6648C48.6575 39.9818 49.5245 39.7428 50.2075 40.1308L62.7795 47.2048C63.3835 47.5368 64.0845 47.6128 64.7535 47.4188C65.4225 47.2248 65.9745 46.7848 66.3065 46.1808C66.9895 44.9388 66.5255 43.3528 65.2705 42.6468C62.3245 40.9968 58.9855 39.1268 55.6955 37.2438C55.0145 36.8538 54.7785 35.9858 55.1685 35.3038C55.5585 34.6228 56.4265 34.3858 57.1085 34.7768C60.3875 36.6538 63.7215 38.5208 66.6626 40.1688C67.2525 40.4998 67.9436 40.5768 68.6076 40.3868C69.2856 40.1928 69.8436 39.7498 70.1796 39.1398C70.8596 37.9038 70.3925 36.3168 69.1376 35.6018ZM76.5546 32.4988L69.3836 14.0018L66.7285 15.4228C63.8515 16.9188 61.1105 15.7978 58.4585 14.7148C54.8445 13.2378 51.1075 11.7098 45.7165 15.4078C44.5705 16.1908 43.4035 17.1808 42.2425 18.3538C39.6735 20.9498 36.4885 23.4068 32.7655 25.6668C36.6025 29.8388 40.7025 28.1788 45.4085 26.2738C49.1745 24.7488 53.0685 23.1728 56.6465 25.2118L70.5445 33.1338C71.1295 33.4668 71.6306 33.8938 72.0396 34.3838L76.5546 32.4988ZM88.0546 32.4958L77.5315 5.35077C77.5315 5.15177 77.2296 4.89877 77.0816 4.80477C76.7785 4.61277 76.3935 4.57077 76.0585 4.70077L70.8326 6.72677C70.5516 6.83577 70.3296 7.04977 70.2056 7.32977C70.0816 7.60977 70.0735 7.91877 70.1825 8.19877L80.7056 35.3438C80.8146 35.6248 81.0285 35.8468 81.3085 35.9708C81.5885 36.0948 81.8976 36.1028 82.1786 35.9938L87.4045 33.9678C87.9895 33.7408 88.2815 33.0808 88.0546 32.4958ZM74.8426 7.57677C73.8836 7.57677 73.1015 8.35877 73.1015 9.31777C73.1015 10.2768 73.8836 11.0588 74.8426 11.0588C75.8016 11.0588 76.5835 10.2768 76.5835 9.31777C76.5845 8.35877 75.8026 7.57677 74.8426 7.57677Z" fill="#E89586"/>
<defs>
<linearGradient id="paint0_linear_1_27452" x1="23" y1="39.5" x2="92" y2="39.5" gradientUnits="userSpaceOnUse">
<stop stop-color="#FFAFBD"/>
<stop offset="1" stop-color="#FFC3A0"/>
</linearGradient>
</defs>
</svg>
