<svg width="99" height="78" viewBox="0 0 99 78" fill="none" xmlns="http://www.w3.org/2000/svg">
<path fill-rule="evenodd" clip-rule="evenodd" d="M34.4532 38.279C37.0283 30.7266 44.3691 26.5176 51.339 22.7196C58.026 19.0758 65.1433 16.2691 72.6262 17.4782C80.943 18.8219 90.3363 21.8047 93.7337 29.5695C97.0209 37.0826 91.9512 45.4074 88.0056 52.6283C85.1137 57.9208 80.1969 61.1832 74.9084 64.0218C69.8897 66.7155 64.7071 68.454 59.0422 68.1741C51.4277 67.7979 42.7374 68.0978 37.8802 62.1924C32.5896 55.7602 31.7475 46.2144 34.4532 38.279Z" fill="url(#paint0_linear_1_27458)"/>
<path d="M27.8405 13.9925C29.8358 13.9925 34.0851 13.92 37.8373 13.3827C39.7124 13.1143 41.4706 12.7287 42.7625 12.1746C44.0449 11.6245 44.9144 10.8871 44.9144 9.89245C44.9144 8.89781 44.045 8.15971 42.7626 7.60855C41.4707 7.0533 39.7124 6.66632 37.8373 6.39637C34.0851 5.85619 29.8359 5.78086 27.8405 5.78086C25.8452 5.78086 21.593 5.85329 17.8379 6.39202C15.9613 6.66124 14.2017 7.04785 12.9086 7.60366C11.625 8.15541 10.755 8.89498 10.755 9.89245C10.755 10.89 11.6258 11.6288 12.9103 12.1795C14.2043 12.7342 15.965 13.1193 17.8423 13.3871C21.5989 13.9229 25.851 13.9925 27.8405 13.9925ZM27.8405 8.2997C31.7263 8.2997 34.8811 8.54294 37.2614 8.87555C39.4413 9.18015 40.9659 9.55893 41.8077 9.89174C40.9656 10.2198 39.4409 10.596 37.2615 10.8992C34.8811 11.2304 31.7263 11.4736 27.8405 11.4736C23.9547 11.4736 20.8057 11.2304 18.4297 10.8992C16.2547 10.5961 14.7327 10.22 13.8864 9.89181C14.7348 9.55894 16.2719 9.18015 18.4558 8.87555C20.8405 8.54293 23.9895 8.2997 27.8405 8.2997Z" fill="#C18F9B" stroke="#C18F9B" stroke-width="0.2"/>
<path d="M63.0918 57.6526L63.0918 57.6525L64.541 41.8503C64.541 41.8502 64.541 41.8501 64.541 41.85C64.5606 41.6195 64.5323 41.3875 64.4577 41.1685C64.3831 40.9495 64.2639 40.7483 64.1077 40.5776C63.9514 40.407 63.7615 40.2706 63.5498 40.177C63.3382 40.0835 63.1094 40.0348 62.878 40.0341H61.3711C60.2468 40.0341 59.1685 39.5875 58.3735 38.7925C57.5786 37.9975 57.1319 36.9193 57.1319 35.795V10.5313C57.1319 10.5313 57.1319 10.5313 57.1319 10.5312C57.1319 10.2755 57.1827 10.0223 57.2813 9.78627C57.3799 9.55027 57.5244 9.33621 57.7064 9.15649C57.8884 8.97678 58.1042 8.83499 58.3415 8.73935C58.5785 8.6438 58.8321 8.59622 59.0876 8.59937H79.1682C79.6805 8.59937 80.1719 8.8029 80.5342 9.1652C80.8965 9.5275 81.1 10.0189 81.1 10.5312V35.795C81.1 36.9193 80.6534 37.9975 79.8584 38.7925C79.0634 39.5875 77.9852 40.0341 76.8609 40.0341H75.3424C75.1122 40.0364 74.8848 40.0862 74.6747 40.1803C74.4643 40.2745 74.2757 40.4111 74.1206 40.5816C73.9655 40.7521 73.8473 40.9528 73.7734 41.1711C73.6995 41.3893 73.6714 41.6203 73.691 41.8498C73.691 41.85 73.691 41.8501 73.691 41.8503L75.1518 57.6289L63.0918 57.6526ZM63.0918 57.6526C62.9768 58.9157 63.2619 60.1829 63.9066 61.2751M63.0918 57.6526L63.9066 61.2751M75.3419 37.5153H75.3421H76.8609C77.3172 37.5153 77.7547 37.3341 78.0774 37.0114C78.4 36.6888 78.5812 36.2513 78.5812 35.795V32.637H59.6508V35.795C59.6508 36.0228 59.696 36.2483 59.7838 36.4585C59.8716 36.6686 60.0003 36.8592 60.1624 37.0193C60.3244 37.1793 60.5167 37.3056 60.7279 37.3907C60.9392 37.4759 61.1652 37.5182 61.393 37.5153L61.3943 37.5153L62.9014 37.5153H62.9015V37.6153L75.3419 37.5153ZM75.3419 37.5153C74.7613 37.5162 74.1873 37.638 73.6564 37.8729C73.1255 38.1079 72.6493 38.4508 72.2582 38.8799C71.8671 39.309 71.5697 39.8148 71.3848 40.3652C71.2 40.9156 71.1317 41.4984 71.1845 42.0766L71.1845 42.0767L72.6454 57.8796L72.6454 57.8801C72.6931 58.369 72.6374 58.8626 72.4821 59.3286C72.3268 59.7944 72.0754 60.2224 71.7443 60.5848M75.3419 37.5153L71.7443 60.5848M71.7443 60.5848C71.4071 60.9395 71.0014 61.2219 70.5518 61.415C70.1018 61.6082 69.6173 61.7078 69.1276 61.7078C68.6379 61.7078 68.1534 61.6082 67.7034 61.415C67.2537 61.2219 66.8479 60.9394 66.5107 60.5846L71.7443 60.5848ZM63.9066 61.2751C64.5513 62.3673 65.5231 63.2291 66.6844 63.7388M63.9066 61.2751L66.6844 63.7388M66.6844 63.7388C67.8458 64.2484 69.138 64.3801 70.3783 64.1151M66.6844 63.7388L70.3783 64.1151M70.3783 64.1151C71.6184 63.8501 72.7439 63.202 73.5956 62.2625M70.3783 64.1151L73.5956 62.2625M73.5956 62.2625C74.1661 61.643 74.5996 60.9102 74.8678 60.1118C75.1359 59.3135 75.2327 58.4675 75.1518 57.6293L73.5956 62.2625ZM62.3029 11.1182V21.0124C62.3029 21.3464 62.4356 21.6668 62.6718 21.903C62.908 22.1391 63.2283 22.2718 63.5624 22.2718C63.8964 22.2718 64.2167 22.1391 64.4529 21.903C64.6891 21.6668 64.8218 21.3464 64.8218 21.0124V11.1182H67.8682V16.9776C67.8682 17.3116 68.0009 17.632 68.237 17.8682C68.4732 18.1044 68.7936 18.237 69.1276 18.237C69.4616 18.237 69.7819 18.1044 70.0181 17.8682C70.2543 17.632 70.387 17.3116 70.387 16.9776V11.1182H73.4218V21.5457C73.4218 21.8798 73.5545 22.2001 73.7907 22.4363C74.0268 22.6725 74.3472 22.8052 74.6812 22.8052C75.0152 22.8052 75.3356 22.6725 75.5718 22.4363C75.8079 22.2001 75.9406 21.8798 75.9406 21.5457V11.1182H78.5812V30.1182H59.6508V11.1182H62.3029Z" fill="#C18F9B" stroke="#C18F9B" stroke-width="0.2"/>
<path d="M27.8412 46.5841C29.6461 46.584 34.3249 46.526 39.2829 46.0052C41.7622 45.7448 44.3131 45.3686 46.6103 44.8254C48.8272 44.3012 50.8146 43.6201 52.2739 42.7334V47.1217C52.2739 47.3904 52.1382 47.6733 51.8504 47.9664L27.8406 46.4841M27.8412 46.5841C27.841 46.5841 27.8408 46.5841 27.8406 46.5841V46.4841M27.8412 46.5841C27.8414 46.5841 27.8416 46.584 27.8418 46.584L27.8406 46.4841M27.8412 46.5841C21.8307 46.658 15.8277 46.1331 9.92125 45.0172M27.8406 46.4841C21.8363 46.5579 15.8395 46.0336 9.93913 44.9188M9.92125 45.0172C9.92155 45.0173 9.92184 45.0173 9.92214 45.0174L9.93913 44.9188M9.92125 45.0172C9.92103 45.0172 9.92079 45.0171 9.92057 45.0171L9.93913 44.9188M9.92125 45.0172L9.93913 44.9188M27.8412 54.5841C29.6461 54.584 34.3249 54.526 39.2829 54.0052C41.7622 53.7448 44.3131 53.3686 46.6103 52.8254C48.8272 52.3012 50.8146 51.6201 52.2739 50.7334V58.1246C52.2739 58.3852 52.139 58.6618 51.851 58.9501C51.5634 59.238 51.1315 59.5288 50.5599 59.8151C49.4172 60.3876 47.7357 60.9329 45.5901 61.4052C41.3004 62.3497 35.1746 62.9985 27.8406 62.9985H27.829C20.5066 62.9985 14.3866 62.3497 10.0999 61.3995C7.95579 60.9242 6.27511 60.3746 5.13288 59.7958C4.56154 59.5062 4.12979 59.2118 3.8422 58.9196C3.55444 58.6271 3.41884 58.3453 3.41884 58.0783V50.7684C5.44983 51.8652 7.6459 52.6248 9.92125 53.0172C15.8278 54.1331 21.8307 54.658 27.8412 54.5841ZM27.8412 54.5841C27.841 54.5841 27.8408 54.5841 27.8406 54.5841V54.4841M27.8412 54.5841C27.8414 54.5841 27.8416 54.584 27.8418 54.584L27.8406 54.4841M27.8406 54.4841C31.426 54.4841 46.3714 54.2548 52.2739 50.6161L27.8406 54.4841ZM27.829 0.9C21.3182 0.9 14.6009 1.68032 9.50787 3.18672C6.96198 3.93973 4.81548 4.87606 3.30331 5.99182C1.79139 7.10739 0.9 8.41333 0.9 9.90435V58.0783C0.9 59.88 2.34878 61.2331 4.5221 62.2504C6.70164 63.2705 9.64822 63.9722 12.7265 64.4553C18.8851 65.4218 25.6016 65.5174 27.8406 65.5174C30.0795 65.5174 36.7989 65.4276 42.9604 64.464C46.0401 63.9824 48.9882 63.2814 51.1689 62.2601C53.3434 61.2417 54.7928 59.8857 54.7928 58.0783V9.90435C54.7928 8.41325 53.8998 7.10731 52.3856 5.99177C50.8711 4.87603 48.7213 3.93972 46.1718 3.1867C41.0716 1.68032 34.3456 0.9 27.829 0.9ZM3.31884 42.6C3.35213 42.6183 3.38546 42.6365 3.41884 42.6547V42.7684L3.31884 42.6ZM52.2739 39.1565C52.2739 39.4252 52.1382 39.7081 51.8504 40.0012C51.5628 40.2942 51.131 40.5891 50.5595 40.8789C49.4169 41.4583 47.7356 42.0075 45.59 42.4821C41.3004 43.4308 35.1746 44.0768 27.8406 44.0768C20.5066 44.0768 14.3838 43.425 10.0971 42.4705C7.95301 41.9931 6.2731 41.4409 5.13162 40.8594C4.56066 40.5686 4.12928 40.2728 3.84194 39.9792C3.55447 39.6854 3.41884 39.402 3.41884 39.1333V13.8795C5.68729 15.4833 9.31509 16.7202 13.5632 17.5619C17.9153 18.4242 22.9306 18.8739 27.829 18.8739C32.7273 18.8739 37.7658 18.4242 42.1339 17.5619C46.3957 16.7205 50.0316 15.4842 52.2739 13.8809V39.1565ZM27.829 3.41884C35.4272 3.41884 41.5531 4.37739 45.7764 5.67674C47.8886 6.32659 49.5206 7.0604 50.6222 7.79918C51.173 8.16858 51.5879 8.53697 51.8641 8.89368C52.1404 9.25045 52.2739 9.58995 52.2739 9.90435C52.2739 10.2187 52.1404 10.5576 51.8642 10.9134C51.588 11.2692 51.1732 11.6362 50.6224 12.004C49.5208 12.7395 47.8888 13.469 45.7766 14.1145C41.5533 15.4052 35.4272 16.3551 27.829 16.3551C20.2308 16.3551 14.1135 15.4023 9.89888 14.1102C7.791 13.4639 6.16338 12.7341 5.06503 11.9991C4.51583 11.6316 4.10239 11.2651 3.82712 10.9101C3.5518 10.5551 3.41884 10.2173 3.41884 9.90435C3.41884 9.59146 3.55213 9.25307 3.82809 8.89704C4.10398 8.5411 4.51827 8.1732 5.0684 7.80405C6.1686 7.0658 7.79842 6.33164 9.90773 5.68107C14.1252 4.38027 20.2425 3.41884 27.829 3.41884Z" fill="#C18F9B" stroke="#C18F9B" stroke-width="0.2"/>
<defs>
<linearGradient id="paint0_linear_1_27458" x1="98.2587" y1="24.0116" x2="39.8681" y2="75.5674" gradientUnits="userSpaceOnUse">
<stop stop-color="#DAE2F8"/>
<stop offset="1" stop-color="#D6A4A4"/>
</linearGradient>
</defs>
</svg>
