<svg width="70" height="89" viewBox="0 0 70 89" fill="none" xmlns="http://www.w3.org/2000/svg">
<path fill-rule="evenodd" clip-rule="evenodd" d="M32.8375 1.65585C41.1165 0.348043 50.4903 -2.00176 56.9633 3.35238C63.7067 8.93026 66.4887 19.1375 64.2263 27.6193C62.2206 35.1389 52.3399 36.2278 46.7561 41.6194C41.4144 46.7772 40.1894 57.0408 32.8375 57.9278C25.3945 58.8258 20.0042 51.1598 15.1247 45.4358C10.7291 40.2796 6.97407 34.4116 7.00013 27.6193C7.02611 20.8502 10.4999 14.7242 15.2609 9.93992C20.0193 5.15829 26.1928 2.70549 32.8375 1.65585Z" fill="url(#paint0_linear_1_27467)"/>
<path d="M69.0583 40.5875L69.0584 40.5876C69.3488 41.2569 69.1112 42.0362 68.4978 42.4302L68.4976 42.4303L41.437 59.74L42.9707 63.2624L46.4491 61.7487C46.4491 61.7487 46.4493 61.7487 46.4494 61.7486C47.2011 61.4197 48.0744 61.7665 48.4016 62.5164L48.4017 62.5165L56.8234 81.8602C56.8236 81.8607 56.8238 81.8612 56.824 81.8617C57.158 82.5899 56.794 83.5113 56.0548 83.8166C56.0543 83.8168 56.0538 83.817 56.0533 83.8172L46.381 88.0265C46.3809 88.0265 46.3809 88.0265 46.3809 88.0265C46.1881 88.1106 45.9873 88.1497 45.7897 88.1497C45.2177 88.1497 44.6721 87.8167 44.4286 87.2587L44.4286 87.2586L36.0069 67.9149C36.0066 67.9145 36.0064 67.914 36.0062 67.9136C35.6722 67.1853 36.0362 66.2638 36.7756 65.9585C36.776 65.9583 36.7765 65.9581 36.7769 65.958L40.2496 64.4467L38.2111 59.7646L38.2111 59.7644C37.9206 59.0952 38.1582 58.3158 38.7716 57.9219L38.7718 57.9218L65.8325 40.6121L61.6665 31.0432L58.3413 32.4904L61.433 39.5924C61.5902 39.9533 61.5974 40.3618 61.4533 40.7283C61.3092 41.0948 61.0253 41.3889 60.6644 41.5455L69.0583 40.5875ZM69.0583 40.5875L63.7948 28.4977L63.7948 28.4976C63.4674 27.7471 62.5938 27.4038 61.8427 27.7297L61.8425 27.7298L57.1569 29.7696L54.0643 22.6658L54.0643 22.6657C53.7371 21.9158 52.8625 21.5689 52.112 21.8979V21.8979L52.1116 21.898L3.74403 42.9466C3.74355 42.9468 3.74307 42.947 3.7426 42.9472C3.00385 43.2521 2.63886 44.1742 2.9733 44.9022C2.97352 44.9027 2.97375 44.9032 2.97398 44.9037L10.3412 61.8259C10.6694 62.5843 11.5601 62.9181 12.2941 62.5939C12.2942 62.5939 12.2944 62.5938 12.2945 62.5938L15.9219 61.0153L23.9881 79.5435L23.988 79.5435L23.9902 79.5481C27.2095 86.3044 37.0861 81.9325 34.3294 75.0479L34.3295 75.0479L34.3277 75.0438L29.9063 64.8881L29.9063 64.8881L29.9048 64.8849C29.6192 64.2684 29.9403 63.4572 30.5683 63.1983L30.5708 63.1972C31.6214 62.7411 32.4247 61.9042 32.8156 60.8751C33.3516 59.817 33.1193 58.5767 32.6921 57.4041C32.4768 56.813 32.208 56.2289 31.9521 55.6824C31.9286 55.632 31.9051 55.582 31.8818 55.5324C31.6758 55.0931 31.4831 54.682 31.3347 54.3083L60.6643 41.5455L69.0583 40.5875ZM18.6432 59.8312L28.6192 55.49L30.0537 58.7837L18.6432 59.8312ZM18.6432 59.8312L26.7073 78.3547C26.7076 78.3553 26.7079 78.3559 26.7082 78.3565C28.2015 81.5506 32.927 79.4872 31.6061 76.2272C31.6059 76.2266 31.6057 76.2261 31.6054 76.2255L27.1867 66.0761C27.1865 66.0757 27.1863 66.0752 27.1861 66.0747C26.2314 64.0011 27.2777 61.3442 29.3888 60.4755C29.7042 60.3387 29.9397 60.0928 30.0563 59.7845L30.0577 59.7808L30.0577 59.7808C30.197 59.44 30.1905 59.0992 30.0538 58.7839L18.6432 59.8312ZM28.8164 52.1687L28.8161 52.1689L28.8155 52.1691L28.8135 52.17L28.8061 52.1732L28.7779 52.1855L28.6702 52.2323L28.2654 52.4085L26.8274 53.0342L22.4727 54.9292L16.1372 57.6861C16.1094 57.6925 16.0837 57.7037 16.0601 57.7196L12.4697 59.282L6.28544 45.0762L51.9359 25.21L58.1203 39.4171L28.8164 52.1687ZM46.2733 65.0607L53.5119 81.6876L46.5569 84.7144L39.3184 68.0875L46.2733 65.0607Z" fill="#BBB9B2" stroke="#BBB9B2" stroke-width="0.3"/>
<path d="M5.43224 22.7983L5.43226 22.7983L5.4352 22.797C6.72843 22.1997 8.4041 22.8598 8.94591 24.179L8.94588 24.179L8.94714 24.1819L9.49998 25.4517C10.101 26.8328 11.2032 27.898 12.6031 28.448C14.8709 29.4028 17.1973 28.6358 18.6935 27.0849C20.1897 25.534 20.8729 23.1813 19.8382 20.9491L18.7347 18.4129C16.0323 11.7628 25.6948 7.56373 28.7112 14.0735L30.0251 17.0917C30.7839 18.9396 33.1192 19.8578 34.9314 19.0208C34.9319 19.0205 34.9325 19.0203 34.933 19.0201L36.1996 18.4693C38.5168 17.4617 41.222 18.525 42.2295 20.8413L42.2295 20.8414L42.6957 21.9119L42.6958 21.912C43.0232 22.6626 43.8975 23.0058 44.6485 22.6799L44.6488 22.6798C45.4 22.3523 45.7433 21.4787 45.4167 20.7269L45.4166 20.7268L44.9504 19.6563L44.95 19.6553C42.9686 15.1876 37.8334 13.9919 33.737 16.3046C33.3788 16.4671 32.8975 16.2769 32.748 15.9112L32.748 15.9112L32.7466 15.9081L31.4313 12.8866L31.4313 12.8866L31.4294 12.8826C26.692 2.83074 11.8875 9.27342 16.0114 19.5923L16.0113 19.5923L16.0131 19.5964L17.1181 22.1359L17.1181 22.1359L17.1194 22.1388C17.7158 23.4329 17.0571 25.1068 15.7381 25.6476L15.7381 25.6475L15.7323 25.6502C14.4302 26.25 12.7668 25.5975 12.2221 24.2695L12.2222 24.2695L12.2209 24.2666L11.668 22.9968L11.6681 22.9968L11.6662 22.9927C8.49203 16.2668 -1.43001 20.5631 1.32657 27.4921L1.3265 27.4921L1.32842 27.4965L5.86447 37.9152L5.86452 37.9153C6.10784 38.4729 6.65284 38.8058 7.22433 38.8063C8.27043 38.8226 9.02282 37.6872 8.58477 36.7288C8.58457 36.7284 8.58437 36.728 8.58417 36.7275L4.04927 26.3113C4.04926 26.3113 4.04926 26.3113 4.04926 26.3113C3.46243 24.9625 4.08266 23.3865 5.43224 22.7983Z" fill="#BBB9B2" stroke="#BBB9B2" stroke-width="0.3"/>
<defs>
<linearGradient id="paint0_linear_1_27467" x1="44.3045" y1="-2.18995e-06" x2="9.68236" y2="52.7529" gradientUnits="userSpaceOnUse">
<stop stop-color="#EFEFBB"/>
<stop offset="1" stop-color="#D4D3DD"/>
</linearGradient>
</defs>
</svg>
