<svg width="73" height="77" viewBox="0 0 73 77" fill="none" xmlns="http://www.w3.org/2000/svg">
<path fill-rule="evenodd" clip-rule="evenodd" d="M47.3099 0.000581349C55.7297 0.0906645 59.8699 10.0924 64.6823 17.0097C68.36 22.296 70.6713 27.985 71.2428 34.4016C71.8894 41.6623 73.5746 50.4114 68.0835 55.1985C62.6548 59.9311 54.478 54.6034 47.3099 55.2658C38.5655 56.0739 29.5569 64.3954 22.3112 59.4283C14.9968 54.414 15.3925 43.1516 16.8751 34.4016C18.1394 26.94 24.5498 22.2995 29.5622 16.634C35.1477 10.3205 38.886 -0.0895452 47.3099 0.000581349Z" fill="url(#paint0_linear_1_27393)" fill-opacity="0.6"/>
<mask id="path-2-outside-1_1_27393" maskUnits="userSpaceOnUse" x="0" y="3.41113" width="73" height="73" fill="black">
<rect fill="white" y="3.41113" width="73" height="73"/>
<path d="M68.3502 54.5312H66.0108L68.1596 53.6375C68.6468 53.4379 69.0899 53.1442 69.4633 52.7731C69.8368 52.4019 70.1334 51.9608 70.336 51.4749C70.5387 50.9889 70.6435 50.4678 70.6444 49.9413C70.6453 49.4148 70.5423 48.8933 70.3413 48.4067L65.2091 35.9867C64.7997 34.9991 64.015 34.2144 63.0274 33.805C62.048 33.4173 60.9576 33.4173 59.9782 33.805L57.8951 34.6725L60.1688 32.425C60.5436 32.0534 60.8411 31.6112 61.0441 31.1239C61.2471 30.6367 61.3516 30.114 61.3516 29.5862C61.3516 29.0584 61.2471 28.5357 61.0441 28.0485C60.8411 27.5613 60.5436 27.119 60.1688 26.7474L50.706 17.2188C49.9511 16.4794 48.937 16.0643 47.8803 16.0623H47.8475C47.324 16.0558 46.8045 16.1549 46.3202 16.3536C45.8358 16.5523 45.3965 16.8466 45.0284 17.2188L42.1698 20.0708L43.6812 16.4434C43.8861 15.9567 43.9917 15.4339 43.9917 14.9057C43.9917 14.3776 43.8861 13.8548 43.6812 13.368C43.4819 12.8801 43.1858 12.4376 42.8108 12.0671C42.4359 11.6967 41.9898 11.406 41.4995 11.2126L29.0796 6.04748C28.5929 5.84691 28.0714 5.74424 27.5451 5.74536C27.0187 5.74647 26.4977 5.85134 26.0119 6.05397C25.5261 6.2566 25.0849 6.55301 24.7138 6.92625C24.3426 7.29949 24.0486 7.74224 23.8487 8.22918L22.4359 11.6003V8.39346C22.4355 7.8684 22.3313 7.34859 22.1294 6.8639C21.9275 6.37921 21.6318 5.9392 21.2593 5.56915C20.8868 5.19909 20.4449 4.9063 19.9589 4.70758C19.4729 4.50886 18.9524 4.40814 18.4273 4.4112H4.98226C3.92622 4.41161 2.91356 4.8313 2.16682 5.57803C1.42009 6.32476 1.00041 7.33742 1 8.39346V64.2898C1.00624 65.3434 1.42801 66.352 2.17367 67.0964C2.91932 67.8408 3.92862 68.2609 4.98226 68.2654H8.47824V71.9915C8.48061 73.055 8.9046 74.0742 9.65725 74.8256C10.4099 75.5771 11.4298 75.9994 12.4934 76H68.3502C69.4137 75.9994 70.4337 75.5771 71.1863 74.8256C71.939 74.0742 72.363 73.055 72.3653 71.9915V58.5463C72.3643 57.4818 71.941 56.4611 71.1882 55.7083C70.4355 54.9555 69.4148 54.5322 68.3502 54.5312ZM60.78 35.829C61.0027 35.7315 61.2432 35.6812 61.4864 35.6812C61.7295 35.6812 61.9701 35.7315 62.1928 35.829C62.6393 36.0192 62.9949 36.3748 63.1851 36.8213L68.3502 49.2412C68.5274 49.6927 68.523 50.1952 68.3381 50.6435C68.1531 51.0918 67.8019 51.4512 67.3579 51.6464L60.3331 54.5312H56.1931L50.2263 40.1924L60.78 35.829ZM34.2775 44.4573L27.5419 37.6887L36.9061 28.3508L47.4992 38.9701L34.2775 44.4573ZM24.5519 37.5902L15.5688 33.8708L20.6419 21.6151L34.7244 27.4505L24.5519 37.5902ZM48.2352 41.027L53.8471 54.5312H39.4755L35.9795 46.0935L48.2352 41.027ZM46.566 18.7565C46.9147 18.4183 47.3814 18.2291 47.8672 18.2291C48.3529 18.2291 48.8196 18.4183 49.1683 18.7565L58.6311 28.2851C58.8022 28.4558 58.9379 28.6586 59.0305 28.8819C59.1231 29.1052 59.1708 29.3445 59.1708 29.5862C59.1708 29.8279 59.1231 30.0672 59.0305 30.2905C58.9379 30.5138 58.8022 30.7166 58.6311 30.8873L52.6314 36.8542L49.6809 38.0699L38.4504 26.8131L46.566 18.7565ZM25.8399 9.06374C26.0318 8.61707 26.3909 8.26321 26.8403 8.07779C27.2898 7.89237 27.7939 7.8901 28.245 8.07147L40.6649 13.2037C41.1119 13.3965 41.4673 13.7543 41.6572 14.2026C41.7515 14.425 41.8001 14.6641 41.8001 14.9057C41.8001 15.1473 41.7515 15.3864 41.6572 15.6088L38.1941 24.0202L36.3935 25.7813L21.4765 19.6239L25.8399 9.06374ZM3.15542 8.39346C3.1597 7.90967 3.35334 7.44681 3.69483 7.10409C4.03632 6.76137 4.49849 6.56607 4.98226 6.56005H18.4273C18.9163 6.55925 19.3858 6.75133 19.7339 7.09459C20.0821 7.43784 20.2809 7.90457 20.287 8.39346V16.8311L19.0648 19.7817L19.0385 19.8145H3.15542V8.39346ZM3.15542 21.9962H18.1382L12.6511 35.2507H3.15542V21.9962ZM4.98226 66.1166C4.49951 66.1109 4.03812 65.9166 3.69674 65.5753C3.35536 65.2339 3.16107 64.7725 3.15542 64.2898V37.4325H11.7508L6.26366 50.6475C6.20935 50.7802 6.18211 50.9225 6.18353 51.0659C6.18496 51.2093 6.21501 51.3509 6.27194 51.4825C6.32888 51.6142 6.41153 51.7331 6.51506 51.8323C6.61858 51.9315 6.74089 52.0091 6.8748 52.0604C7.00521 52.1177 7.14583 52.1482 7.28828 52.1501C7.43073 52.1519 7.57209 52.125 7.70393 52.0711C7.83578 52.0171 7.95541 51.9371 8.05569 51.836C8.15598 51.7348 8.23487 51.6144 8.28765 51.4821L14.7342 35.8553L22.8893 39.2593L11.2382 50.8118C11.0391 51.0182 10.9277 51.2938 10.9277 51.5807C10.9277 51.8675 11.0391 52.1431 11.2382 52.3495C11.4431 52.5517 11.7193 52.665 12.0071 52.665C12.2949 52.665 12.5711 52.5517 12.7759 52.3495L25.9976 39.2264L32.0958 45.3575L17.7833 51.2915C17.6494 51.3428 17.5271 51.4204 17.4236 51.5196C17.3201 51.6188 17.2374 51.7377 17.1805 51.8694C17.1235 52.001 17.0935 52.1426 17.0921 52.286C17.0906 52.4294 17.1179 52.5716 17.1722 52.7044C17.2288 52.8376 17.3111 52.9583 17.4145 53.0595C17.5179 53.1608 17.6404 53.2405 17.7747 53.2943C17.9091 53.348 18.0528 53.3747 18.1975 53.3727C18.3422 53.3707 18.4851 53.3401 18.6179 53.2826L33.9884 46.9281L37.1361 54.5312H12.4934C11.4288 54.5322 10.4081 54.9555 9.65534 55.7083C8.90257 56.461 8.47924 57.4817 8.47824 58.5463V62.2986L6.94054 60.7609C6.76287 60.5853 6.62513 60.3735 6.53668 60.1399C6.44823 59.9063 6.41115 59.6564 6.42797 59.4072C6.43245 59.2642 6.40858 59.1218 6.35773 58.9881C6.30688 58.8544 6.23006 58.7321 6.1317 58.6282C6.03334 58.5244 5.91539 58.441 5.78465 58.383C5.65391 58.3249 5.51298 58.2933 5.36997 58.2901C5.22565 58.2813 5.08107 58.3021 4.94511 58.3513C4.80916 58.4006 4.68472 58.4771 4.57945 58.5762C4.47418 58.6753 4.39032 58.7949 4.33302 58.9277C4.27571 59.0604 4.24619 59.2035 4.24626 59.348C4.23181 59.8917 4.32609 60.4327 4.52357 60.9394C4.72105 61.446 5.01775 61.9082 5.39626 62.2986L8.47824 65.3806V66.1166L4.98226 66.1166ZM23.9144 73.8183H12.4934C12.2522 73.8217 12.0128 73.7768 11.7893 73.6863C11.5657 73.5957 11.3625 73.4614 11.1917 73.2912C11.0208 73.1209 10.8858 72.9183 10.7945 72.695C10.7031 72.4718 10.6574 72.2326 10.6599 71.9914V58.5463C10.6595 58.3054 10.7066 58.0668 10.7986 57.8442C10.8905 57.6215 11.0256 57.4192 11.1959 57.2489C11.3662 57.0785 11.5685 56.9435 11.7912 56.8515C12.0138 56.7596 12.2525 56.7124 12.4934 56.7129H23.9144V73.8183ZM39.3441 73.8183H26.0961V56.7129H39.3441V73.8183ZM54.7803 73.8183H41.4995V56.7129H54.7803V73.8183ZM70.2165 71.9914C70.2153 72.2343 70.1659 72.4746 70.0713 72.6983C69.9766 72.922 69.8384 73.1246 69.6648 73.2946C69.4912 73.4645 69.2857 73.5983 69.06 73.6882C68.8343 73.778 68.5931 73.8223 68.3502 73.8183H56.9291V56.7129H68.3502C68.8402 56.7108 69.3111 56.9022 69.6606 57.2456C70.0101 57.5889 70.2099 58.0564 70.2165 58.5463V71.9914ZM17.4942 69.2577C18.2805 69.2577 19.0492 69.0246 19.703 68.5877C20.3568 68.1508 20.8663 67.5299 21.1673 66.8035C21.4682 66.077 21.5469 65.2776 21.3935 64.5064C21.2401 63.7352 20.8614 63.0268 20.3054 62.4708C19.7494 61.9148 19.041 61.5361 18.2698 61.3827C17.4986 61.2293 16.6992 61.3081 15.9728 61.609C15.2463 61.9099 14.6254 62.4195 14.1885 63.0733C13.7517 63.7271 13.5185 64.4957 13.5185 65.282C13.5192 66.3362 13.9383 67.3471 14.6837 68.0925C15.4291 68.838 16.44 69.2571 17.4942 69.2577ZM17.4942 63.4552C17.978 63.4595 18.4408 63.6531 18.7836 63.9946C19.1263 64.3361 19.3216 64.7983 19.3276 65.282C19.3203 65.7624 19.1235 66.2204 18.7801 66.5564C18.4368 66.8924 17.9746 67.0791 17.4942 67.076C17.2585 67.0763 17.0251 67.03 16.8074 66.94C16.5896 66.8499 16.3917 66.7178 16.2251 66.5511C16.0585 66.3845 15.9263 66.1866 15.8363 65.9689C15.7462 65.7511 15.7 65.5177 15.7002 65.282C15.6984 64.8027 15.8858 64.3419 16.2217 63.9999C16.5576 63.6579 17.0149 63.4621 17.4942 63.4552Z"/>
</mask>
<path d="M68.3502 54.5312H66.0108L68.1596 53.6375C68.6468 53.4379 69.0899 53.1442 69.4633 52.7731C69.8368 52.4019 70.1334 51.9608 70.336 51.4749C70.5387 50.9889 70.6435 50.4678 70.6444 49.9413C70.6453 49.4148 70.5423 48.8933 70.3413 48.4067L65.2091 35.9867C64.7997 34.9991 64.015 34.2144 63.0274 33.805C62.048 33.4173 60.9576 33.4173 59.9782 33.805L57.8951 34.6725L60.1688 32.425C60.5436 32.0534 60.8411 31.6112 61.0441 31.1239C61.2471 30.6367 61.3516 30.114 61.3516 29.5862C61.3516 29.0584 61.2471 28.5357 61.0441 28.0485C60.8411 27.5613 60.5436 27.119 60.1688 26.7474L50.706 17.2188C49.9511 16.4794 48.937 16.0643 47.8803 16.0623H47.8475C47.324 16.0558 46.8045 16.1549 46.3202 16.3536C45.8358 16.5523 45.3965 16.8466 45.0284 17.2188L42.1698 20.0708L43.6812 16.4434C43.8861 15.9567 43.9917 15.4339 43.9917 14.9057C43.9917 14.3776 43.8861 13.8548 43.6812 13.368C43.4819 12.8801 43.1858 12.4376 42.8108 12.0671C42.4359 11.6967 41.9898 11.406 41.4995 11.2126L29.0796 6.04748C28.5929 5.84691 28.0714 5.74424 27.5451 5.74536C27.0187 5.74647 26.4977 5.85134 26.0119 6.05397C25.5261 6.2566 25.0849 6.55301 24.7138 6.92625C24.3426 7.29949 24.0486 7.74224 23.8487 8.22918L22.4359 11.6003V8.39346C22.4355 7.8684 22.3313 7.34859 22.1294 6.8639C21.9275 6.37921 21.6318 5.9392 21.2593 5.56915C20.8868 5.19909 20.4449 4.9063 19.9589 4.70758C19.4729 4.50886 18.9524 4.40814 18.4273 4.4112H4.98226C3.92622 4.41161 2.91356 4.8313 2.16682 5.57803C1.42009 6.32476 1.00041 7.33742 1 8.39346V64.2898C1.00624 65.3434 1.42801 66.352 2.17367 67.0964C2.91932 67.8408 3.92862 68.2609 4.98226 68.2654H8.47824V71.9915C8.48061 73.055 8.9046 74.0742 9.65725 74.8256C10.4099 75.5771 11.4298 75.9994 12.4934 76H68.3502C69.4137 75.9994 70.4337 75.5771 71.1863 74.8256C71.939 74.0742 72.363 73.055 72.3653 71.9915V58.5463C72.3643 57.4818 71.941 56.4611 71.1882 55.7083C70.4355 54.9555 69.4148 54.5322 68.3502 54.5312ZM60.78 35.829C61.0027 35.7315 61.2432 35.6812 61.4864 35.6812C61.7295 35.6812 61.9701 35.7315 62.1928 35.829C62.6393 36.0192 62.9949 36.3748 63.1851 36.8213L68.3502 49.2412C68.5274 49.6927 68.523 50.1952 68.3381 50.6435C68.1531 51.0918 67.8019 51.4512 67.3579 51.6464L60.3331 54.5312H56.1931L50.2263 40.1924L60.78 35.829ZM34.2775 44.4573L27.5419 37.6887L36.9061 28.3508L47.4992 38.9701L34.2775 44.4573ZM24.5519 37.5902L15.5688 33.8708L20.6419 21.6151L34.7244 27.4505L24.5519 37.5902ZM48.2352 41.027L53.8471 54.5312H39.4755L35.9795 46.0935L48.2352 41.027ZM46.566 18.7565C46.9147 18.4183 47.3814 18.2291 47.8672 18.2291C48.3529 18.2291 48.8196 18.4183 49.1683 18.7565L58.6311 28.2851C58.8022 28.4558 58.9379 28.6586 59.0305 28.8819C59.1231 29.1052 59.1708 29.3445 59.1708 29.5862C59.1708 29.8279 59.1231 30.0672 59.0305 30.2905C58.9379 30.5138 58.8022 30.7166 58.6311 30.8873L52.6314 36.8542L49.6809 38.0699L38.4504 26.8131L46.566 18.7565ZM25.8399 9.06374C26.0318 8.61707 26.3909 8.26321 26.8403 8.07779C27.2898 7.89237 27.7939 7.8901 28.245 8.07147L40.6649 13.2037C41.1119 13.3965 41.4673 13.7543 41.6572 14.2026C41.7515 14.425 41.8001 14.6641 41.8001 14.9057C41.8001 15.1473 41.7515 15.3864 41.6572 15.6088L38.1941 24.0202L36.3935 25.7813L21.4765 19.6239L25.8399 9.06374ZM3.15542 8.39346C3.1597 7.90967 3.35334 7.44681 3.69483 7.10409C4.03632 6.76137 4.49849 6.56607 4.98226 6.56005H18.4273C18.9163 6.55925 19.3858 6.75133 19.7339 7.09459C20.0821 7.43784 20.2809 7.90457 20.287 8.39346V16.8311L19.0648 19.7817L19.0385 19.8145H3.15542V8.39346ZM3.15542 21.9962H18.1382L12.6511 35.2507H3.15542V21.9962ZM4.98226 66.1166C4.49951 66.1109 4.03812 65.9166 3.69674 65.5753C3.35536 65.2339 3.16107 64.7725 3.15542 64.2898V37.4325H11.7508L6.26366 50.6475C6.20935 50.7802 6.18211 50.9225 6.18353 51.0659C6.18496 51.2093 6.21501 51.3509 6.27194 51.4825C6.32888 51.6142 6.41153 51.7331 6.51506 51.8323C6.61858 51.9315 6.74089 52.0091 6.8748 52.0604C7.00521 52.1177 7.14583 52.1482 7.28828 52.1501C7.43073 52.1519 7.57209 52.125 7.70393 52.0711C7.83578 52.0171 7.95541 51.9371 8.05569 51.836C8.15598 51.7348 8.23487 51.6144 8.28765 51.4821L14.7342 35.8553L22.8893 39.2593L11.2382 50.8118C11.0391 51.0182 10.9277 51.2938 10.9277 51.5807C10.9277 51.8675 11.0391 52.1431 11.2382 52.3495C11.4431 52.5517 11.7193 52.665 12.0071 52.665C12.2949 52.665 12.5711 52.5517 12.7759 52.3495L25.9976 39.2264L32.0958 45.3575L17.7833 51.2915C17.6494 51.3428 17.5271 51.4204 17.4236 51.5196C17.3201 51.6188 17.2374 51.7377 17.1805 51.8694C17.1235 52.001 17.0935 52.1426 17.0921 52.286C17.0906 52.4294 17.1179 52.5716 17.1722 52.7044C17.2288 52.8376 17.3111 52.9583 17.4145 53.0595C17.5179 53.1608 17.6404 53.2405 17.7747 53.2943C17.9091 53.348 18.0528 53.3747 18.1975 53.3727C18.3422 53.3707 18.4851 53.3401 18.6179 53.2826L33.9884 46.9281L37.1361 54.5312H12.4934C11.4288 54.5322 10.4081 54.9555 9.65534 55.7083C8.90257 56.461 8.47924 57.4817 8.47824 58.5463V62.2986L6.94054 60.7609C6.76287 60.5853 6.62513 60.3735 6.53668 60.1399C6.44823 59.9063 6.41115 59.6564 6.42797 59.4072C6.43245 59.2642 6.40858 59.1218 6.35773 58.9881C6.30688 58.8544 6.23006 58.7321 6.1317 58.6282C6.03334 58.5244 5.91539 58.441 5.78465 58.383C5.65391 58.3249 5.51298 58.2933 5.36997 58.2901C5.22565 58.2813 5.08107 58.3021 4.94511 58.3513C4.80916 58.4006 4.68472 58.4771 4.57945 58.5762C4.47418 58.6753 4.39032 58.7949 4.33302 58.9277C4.27571 59.0604 4.24619 59.2035 4.24626 59.348C4.23181 59.8917 4.32609 60.4327 4.52357 60.9394C4.72105 61.446 5.01775 61.9082 5.39626 62.2986L8.47824 65.3806V66.1166L4.98226 66.1166ZM23.9144 73.8183H12.4934C12.2522 73.8217 12.0128 73.7768 11.7893 73.6863C11.5657 73.5957 11.3625 73.4614 11.1917 73.2912C11.0208 73.1209 10.8858 72.9183 10.7945 72.695C10.7031 72.4718 10.6574 72.2326 10.6599 71.9914V58.5463C10.6595 58.3054 10.7066 58.0668 10.7986 57.8442C10.8905 57.6215 11.0256 57.4192 11.1959 57.2489C11.3662 57.0785 11.5685 56.9435 11.7912 56.8515C12.0138 56.7596 12.2525 56.7124 12.4934 56.7129H23.9144V73.8183ZM39.3441 73.8183H26.0961V56.7129H39.3441V73.8183ZM54.7803 73.8183H41.4995V56.7129H54.7803V73.8183ZM70.2165 71.9914C70.2153 72.2343 70.1659 72.4746 70.0713 72.6983C69.9766 72.922 69.8384 73.1246 69.6648 73.2946C69.4912 73.4645 69.2857 73.5983 69.06 73.6882C68.8343 73.778 68.5931 73.8223 68.3502 73.8183H56.9291V56.7129H68.3502C68.8402 56.7108 69.3111 56.9022 69.6606 57.2456C70.0101 57.5889 70.2099 58.0564 70.2165 58.5463V71.9914ZM17.4942 69.2577C18.2805 69.2577 19.0492 69.0246 19.703 68.5877C20.3568 68.1508 20.8663 67.5299 21.1673 66.8035C21.4682 66.077 21.5469 65.2776 21.3935 64.5064C21.2401 63.7352 20.8614 63.0268 20.3054 62.4708C19.7494 61.9148 19.041 61.5361 18.2698 61.3827C17.4986 61.2293 16.6992 61.3081 15.9728 61.609C15.2463 61.9099 14.6254 62.4195 14.1885 63.0733C13.7517 63.7271 13.5185 64.4957 13.5185 65.282C13.5192 66.3362 13.9383 67.3471 14.6837 68.0925C15.4291 68.838 16.44 69.2571 17.4942 69.2577ZM17.4942 63.4552C17.978 63.4595 18.4408 63.6531 18.7836 63.9946C19.1263 64.3361 19.3216 64.7983 19.3276 65.282C19.3203 65.7624 19.1235 66.2204 18.7801 66.5564C18.4368 66.8924 17.9746 67.0791 17.4942 67.076C17.2585 67.0763 17.0251 67.03 16.8074 66.94C16.5896 66.8499 16.3917 66.7178 16.2251 66.5511C16.0585 66.3845 15.9263 66.1866 15.8363 65.9689C15.7462 65.7511 15.7 65.5177 15.7002 65.282C15.6984 64.8027 15.8858 64.3419 16.2217 63.9999C16.5576 63.6579 17.0149 63.4621 17.4942 63.4552Z" fill="#D1B084"/>
<path d="M68.3502 54.5312H66.0108L68.1596 53.6375C68.6468 53.4379 69.0899 53.1442 69.4633 52.7731C69.8368 52.4019 70.1334 51.9608 70.336 51.4749C70.5387 50.9889 70.6435 50.4678 70.6444 49.9413C70.6453 49.4148 70.5423 48.8933 70.3413 48.4067L65.2091 35.9867C64.7997 34.9991 64.015 34.2144 63.0274 33.805C62.048 33.4173 60.9576 33.4173 59.9782 33.805L57.8951 34.6725L60.1688 32.425C60.5436 32.0534 60.8411 31.6112 61.0441 31.1239C61.2471 30.6367 61.3516 30.114 61.3516 29.5862C61.3516 29.0584 61.2471 28.5357 61.0441 28.0485C60.8411 27.5613 60.5436 27.119 60.1688 26.7474L50.706 17.2188C49.9511 16.4794 48.937 16.0643 47.8803 16.0623H47.8475C47.324 16.0558 46.8045 16.1549 46.3202 16.3536C45.8358 16.5523 45.3965 16.8466 45.0284 17.2188L42.1698 20.0708L43.6812 16.4434C43.8861 15.9567 43.9917 15.4339 43.9917 14.9057C43.9917 14.3776 43.8861 13.8548 43.6812 13.368C43.4819 12.8801 43.1858 12.4376 42.8108 12.0671C42.4359 11.6967 41.9898 11.406 41.4995 11.2126L29.0796 6.04748C28.5929 5.84691 28.0714 5.74424 27.5451 5.74536C27.0187 5.74647 26.4977 5.85134 26.0119 6.05397C25.5261 6.2566 25.0849 6.55301 24.7138 6.92625C24.3426 7.29949 24.0486 7.74224 23.8487 8.22918L22.4359 11.6003V8.39346C22.4355 7.8684 22.3313 7.34859 22.1294 6.8639C21.9275 6.37921 21.6318 5.9392 21.2593 5.56915C20.8868 5.19909 20.4449 4.9063 19.9589 4.70758C19.4729 4.50886 18.9524 4.40814 18.4273 4.4112H4.98226C3.92622 4.41161 2.91356 4.8313 2.16682 5.57803C1.42009 6.32476 1.00041 7.33742 1 8.39346V64.2898C1.00624 65.3434 1.42801 66.352 2.17367 67.0964C2.91932 67.8408 3.92862 68.2609 4.98226 68.2654H8.47824V71.9915C8.48061 73.055 8.9046 74.0742 9.65725 74.8256C10.4099 75.5771 11.4298 75.9994 12.4934 76H68.3502C69.4137 75.9994 70.4337 75.5771 71.1863 74.8256C71.939 74.0742 72.363 73.055 72.3653 71.9915V58.5463C72.3643 57.4818 71.941 56.4611 71.1882 55.7083C70.4355 54.9555 69.4148 54.5322 68.3502 54.5312ZM60.78 35.829C61.0027 35.7315 61.2432 35.6812 61.4864 35.6812C61.7295 35.6812 61.9701 35.7315 62.1928 35.829C62.6393 36.0192 62.9949 36.3748 63.1851 36.8213L68.3502 49.2412C68.5274 49.6927 68.523 50.1952 68.3381 50.6435C68.1531 51.0918 67.8019 51.4512 67.3579 51.6464L60.3331 54.5312H56.1931L50.2263 40.1924L60.78 35.829ZM34.2775 44.4573L27.5419 37.6887L36.9061 28.3508L47.4992 38.9701L34.2775 44.4573ZM24.5519 37.5902L15.5688 33.8708L20.6419 21.6151L34.7244 27.4505L24.5519 37.5902ZM48.2352 41.027L53.8471 54.5312H39.4755L35.9795 46.0935L48.2352 41.027ZM46.566 18.7565C46.9147 18.4183 47.3814 18.2291 47.8672 18.2291C48.3529 18.2291 48.8196 18.4183 49.1683 18.7565L58.6311 28.2851C58.8022 28.4558 58.9379 28.6586 59.0305 28.8819C59.1231 29.1052 59.1708 29.3445 59.1708 29.5862C59.1708 29.8279 59.1231 30.0672 59.0305 30.2905C58.9379 30.5138 58.8022 30.7166 58.6311 30.8873L52.6314 36.8542L49.6809 38.0699L38.4504 26.8131L46.566 18.7565ZM25.8399 9.06374C26.0318 8.61707 26.3909 8.26321 26.8403 8.07779C27.2898 7.89237 27.7939 7.8901 28.245 8.07147L40.6649 13.2037C41.1119 13.3965 41.4673 13.7543 41.6572 14.2026C41.7515 14.425 41.8001 14.6641 41.8001 14.9057C41.8001 15.1473 41.7515 15.3864 41.6572 15.6088L38.1941 24.0202L36.3935 25.7813L21.4765 19.6239L25.8399 9.06374ZM3.15542 8.39346C3.1597 7.90967 3.35334 7.44681 3.69483 7.10409C4.03632 6.76137 4.49849 6.56607 4.98226 6.56005H18.4273C18.9163 6.55925 19.3858 6.75133 19.7339 7.09459C20.0821 7.43784 20.2809 7.90457 20.287 8.39346V16.8311L19.0648 19.7817L19.0385 19.8145H3.15542V8.39346ZM3.15542 21.9962H18.1382L12.6511 35.2507H3.15542V21.9962ZM4.98226 66.1166C4.49951 66.1109 4.03812 65.9166 3.69674 65.5753C3.35536 65.2339 3.16107 64.7725 3.15542 64.2898V37.4325H11.7508L6.26366 50.6475C6.20935 50.7802 6.18211 50.9225 6.18353 51.0659C6.18496 51.2093 6.21501 51.3509 6.27194 51.4825C6.32888 51.6142 6.41153 51.7331 6.51506 51.8323C6.61858 51.9315 6.74089 52.0091 6.8748 52.0604C7.00521 52.1177 7.14583 52.1482 7.28828 52.1501C7.43073 52.1519 7.57209 52.125 7.70393 52.0711C7.83578 52.0171 7.95541 51.9371 8.05569 51.836C8.15598 51.7348 8.23487 51.6144 8.28765 51.4821L14.7342 35.8553L22.8893 39.2593L11.2382 50.8118C11.0391 51.0182 10.9277 51.2938 10.9277 51.5807C10.9277 51.8675 11.0391 52.1431 11.2382 52.3495C11.4431 52.5517 11.7193 52.665 12.0071 52.665C12.2949 52.665 12.5711 52.5517 12.7759 52.3495L25.9976 39.2264L32.0958 45.3575L17.7833 51.2915C17.6494 51.3428 17.5271 51.4204 17.4236 51.5196C17.3201 51.6188 17.2374 51.7377 17.1805 51.8694C17.1235 52.001 17.0935 52.1426 17.0921 52.286C17.0906 52.4294 17.1179 52.5716 17.1722 52.7044C17.2288 52.8376 17.3111 52.9583 17.4145 53.0595C17.5179 53.1608 17.6404 53.2405 17.7747 53.2943C17.9091 53.348 18.0528 53.3747 18.1975 53.3727C18.3422 53.3707 18.4851 53.3401 18.6179 53.2826L33.9884 46.9281L37.1361 54.5312H12.4934C11.4288 54.5322 10.4081 54.9555 9.65534 55.7083C8.90257 56.461 8.47924 57.4817 8.47824 58.5463V62.2986L6.94054 60.7609C6.76287 60.5853 6.62513 60.3735 6.53668 60.1399C6.44823 59.9063 6.41115 59.6564 6.42797 59.4072C6.43245 59.2642 6.40858 59.1218 6.35773 58.9881C6.30688 58.8544 6.23006 58.7321 6.1317 58.6282C6.03334 58.5244 5.91539 58.441 5.78465 58.383C5.65391 58.3249 5.51298 58.2933 5.36997 58.2901C5.22565 58.2813 5.08107 58.3021 4.94511 58.3513C4.80916 58.4006 4.68472 58.4771 4.57945 58.5762C4.47418 58.6753 4.39032 58.7949 4.33302 58.9277C4.27571 59.0604 4.24619 59.2035 4.24626 59.348C4.23181 59.8917 4.32609 60.4327 4.52357 60.9394C4.72105 61.446 5.01775 61.9082 5.39626 62.2986L8.47824 65.3806V66.1166L4.98226 66.1166ZM23.9144 73.8183H12.4934C12.2522 73.8217 12.0128 73.7768 11.7893 73.6863C11.5657 73.5957 11.3625 73.4614 11.1917 73.2912C11.0208 73.1209 10.8858 72.9183 10.7945 72.695C10.7031 72.4718 10.6574 72.2326 10.6599 71.9914V58.5463C10.6595 58.3054 10.7066 58.0668 10.7986 57.8442C10.8905 57.6215 11.0256 57.4192 11.1959 57.2489C11.3662 57.0785 11.5685 56.9435 11.7912 56.8515C12.0138 56.7596 12.2525 56.7124 12.4934 56.7129H23.9144V73.8183ZM39.3441 73.8183H26.0961V56.7129H39.3441V73.8183ZM54.7803 73.8183H41.4995V56.7129H54.7803V73.8183ZM70.2165 71.9914C70.2153 72.2343 70.1659 72.4746 70.0713 72.6983C69.9766 72.922 69.8384 73.1246 69.6648 73.2946C69.4912 73.4645 69.2857 73.5983 69.06 73.6882C68.8343 73.778 68.5931 73.8223 68.3502 73.8183H56.9291V56.7129H68.3502C68.8402 56.7108 69.3111 56.9022 69.6606 57.2456C70.0101 57.5889 70.2099 58.0564 70.2165 58.5463V71.9914ZM17.4942 69.2577C18.2805 69.2577 19.0492 69.0246 19.703 68.5877C20.3568 68.1508 20.8663 67.5299 21.1673 66.8035C21.4682 66.077 21.5469 65.2776 21.3935 64.5064C21.2401 63.7352 20.8614 63.0268 20.3054 62.4708C19.7494 61.9148 19.041 61.5361 18.2698 61.3827C17.4986 61.2293 16.6992 61.3081 15.9728 61.609C15.2463 61.9099 14.6254 62.4195 14.1885 63.0733C13.7517 63.7271 13.5185 64.4957 13.5185 65.282C13.5192 66.3362 13.9383 67.3471 14.6837 68.0925C15.4291 68.838 16.44 69.2571 17.4942 69.2577ZM17.4942 63.4552C17.978 63.4595 18.4408 63.6531 18.7836 63.9946C19.1263 64.3361 19.3216 64.7983 19.3276 65.282C19.3203 65.7624 19.1235 66.2204 18.7801 66.5564C18.4368 66.8924 17.9746 67.0791 17.4942 67.076C17.2585 67.0763 17.0251 67.03 16.8074 66.94C16.5896 66.8499 16.3917 66.7178 16.2251 66.5511C16.0585 66.3845 15.9263 66.1866 15.8363 65.9689C15.7462 65.7511 15.7 65.5177 15.7002 65.282C15.6984 64.8027 15.8858 64.3419 16.2217 63.9999C16.5576 63.6579 17.0149 63.4621 17.4942 63.4552Z" stroke="#D1B084" stroke-width="0.4" mask="url(#path-2-outside-1_1_27393)"/>
<defs>
<linearGradient id="paint0_linear_1_27393" x1="16" y1="22.0462" x2="56.5803" y2="50.2081" gradientUnits="userSpaceOnUse">
<stop stop-color="#EACDA3"/>
<stop offset="1" stop-color="#D6AE7B"/>
</linearGradient>
</defs>
</svg>
