<svg width="110" height="91" viewBox="0 0 110 91" fill="none" xmlns="http://www.w3.org/2000/svg">
<path fill-rule="evenodd" clip-rule="evenodd" d="M61.2154 80.2861C51.8134 79.382 39.9288 78.3009 36.0918 69.7089C32.2784 61.1696 41.8557 53.0857 45.1754 44.3678C47.8943 37.2277 47.3406 28.4898 53.5139 23.9561C60.1437 19.0872 68.9374 19.8473 77.1272 20.9027C87.0915 22.1867 99.4323 21.8733 104.48 30.5236C109.528 39.1758 103.728 49.9241 99.2777 58.8645C95.8008 65.8488 89.5592 70.3563 82.7392 74.1946C75.9942 77.9907 68.9432 81.0293 61.2154 80.2861Z" fill="url(#paint0_linear_1_61)"/>
<g clip-path="url(#clip0_1_61)">
<path d="M3.859 47.5652L0.810689 46.0541C0.0913461 45.7006 -0.204651 44.8312 0.149857 44.1139L4.01159 36.287C4.16992 35.9656 4.43264 35.7299 4.73897 35.5983L33.8695 21.0747C34.2928 20.8631 34.7712 20.8791 35.1659 21.0747L49.5597 28.2507C50.2756 28.6077 50.567 29.4771 50.209 30.1909C49.8511 30.9047 48.9791 31.1953 48.2632 30.8384L34.5177 23.9861L8.55825 36.9276L34.5177 49.8703L41.3715 46.4522C42.0874 46.0953 42.9594 46.3858 43.3173 47.0996C43.6753 47.8135 43.3839 48.6829 42.668 49.0398L36.4772 52.1273L39.1516 57.3735L44.7571 54.5948C45.4765 54.2413 46.3484 54.5365 46.7029 55.2537C47.0574 55.971 46.7614 56.8404 46.0421 57.1939L39.1493 60.6109C38.4356 60.9621 37.5706 60.6738 37.2115 59.968L34.5659 54.7859L32.1337 59.9302C31.7918 60.6532 30.9233 60.9632 30.1982 60.6223L6.77194 49.0089V61.5054L33.0607 77.1821V61.3693C33.0607 60.5674 33.7135 59.9165 34.5177 59.9165C35.3219 59.9165 35.9747 60.5674 35.9747 61.3693V77.1821L55.6815 65.428C56.3687 65.0185 57.2625 65.2416 57.6732 65.9268C58.0839 66.612 57.8602 67.5032 57.173 67.9127L35.3644 80.9194C35.1258 81.0899 34.8332 81.1906 34.5177 81.1906C34.2022 81.1906 33.9096 81.0899 33.671 80.9194L4.67357 63.6275C4.19057 63.3918 3.85786 62.8953 3.85786 62.3234L3.859 47.5652ZM67.5329 38.9044L69.536 43.1644L74.381 43.8176C75.1761 43.924 75.7336 44.6539 75.6269 45.4466C75.5753 45.8287 75.3791 46.1547 75.1003 46.3801L71.6849 49.5683L72.5603 54.3717C72.7014 55.1576 72.1759 55.9104 71.3878 56.0511C71.0482 56.1117 70.7143 56.0488 70.4332 55.8943L66.2434 53.5904L61.9365 55.9035C61.2298 56.2821 60.3475 56.0179 59.9678 55.3132C59.8037 55.0078 59.7601 54.6703 59.8209 54.3546L60.7238 49.669L57.1936 46.3023C56.6131 45.7509 56.5902 44.8335 57.1432 44.2546C57.3852 44.0018 57.6961 43.8554 58.0185 43.8154L62.7637 43.2228L64.8827 38.8323C65.2303 38.1116 66.0999 37.8096 66.8227 38.1562C67.1566 38.3164 67.401 38.5875 67.5329 38.9044ZM67.2438 45.108L66.1757 42.8361L65.0766 45.1115C64.8838 45.5839 64.4467 45.9408 63.9041 46.0072L61.4122 46.3172L63.2558 48.0754C63.6333 48.4037 63.8295 48.9162 63.7297 49.4413L63.2547 51.9031L65.5424 50.6745C65.9657 50.44 66.4969 50.4194 66.9524 50.6688L69.1574 51.8825L68.6882 49.3086C68.6079 48.843 68.7548 48.3454 69.1265 47.9988L70.9667 46.2806L68.3647 45.9305C67.892 45.8642 67.4606 45.5702 67.2438 45.108ZM76.0044 60.6314C76.6721 60.8042 77.357 60.8968 78.0408 60.9094C79.5885 60.9357 81.1499 60.5537 82.5393 59.762C82.8961 59.5596 83.3022 59.523 83.6682 59.6282L86.3953 60.3569L85.6564 57.6068C85.5543 57.2225 85.6163 56.8324 85.7998 56.5132C86.7636 54.8293 87.1215 52.8915 86.8703 51.0234C86.6259 49.2022 85.7964 47.436 84.3853 46.0289C83.8747 45.5198 83.324 45.0897 82.7481 44.7397C82.864 45.5336 82.9213 46.3332 82.9213 47.1328C82.9213 51.3952 81.2899 55.6575 78.0305 58.9075C77.3915 59.5447 76.7134 60.1201 76.0044 60.6314ZM81.805 41.1408C82.5416 41.3787 83.2598 41.6945 83.947 42.0823C84.8499 42.5925 85.6932 43.2239 86.4458 43.9744C88.3193 45.8424 89.4218 48.199 89.7499 50.6367C90.0585 52.9327 89.6799 55.3029 88.6164 57.4124L89.8578 62.0339C89.9209 62.2719 89.9255 62.5281 89.8578 62.7821C89.6513 63.5554 88.8528 64.0153 88.0772 63.8093L83.4422 62.5716C81.7385 63.4261 79.8615 63.8368 77.9949 63.8036C76.1891 63.7705 74.389 63.322 72.7553 62.4595C71.3717 63.0452 69.9227 63.4353 68.4542 63.632C65.0685 64.085 61.5671 63.5028 58.4728 61.8864L51.276 63.8093C50.5004 64.0153 49.7019 63.5554 49.4954 62.7821C49.4277 62.5281 49.4323 62.2719 49.4954 62.0339L51.424 54.8579C49.8029 51.7727 49.2189 48.2813 49.6732 44.9067C50.1436 41.4119 51.7246 38.0361 54.4103 35.3581C57.6709 32.107 61.9491 30.4803 66.2204 30.4803C70.4952 30.4803 74.7699 32.107 78.0305 35.3581C79.7411 37.2102 80.8872 38.7648 81.805 41.1408ZM80.0072 47.1328C80.0072 43.6849 78.5422 39.7738 75.97 37.4127C73.2785 34.7289 69.7483 33.3859 66.2204 33.3859C62.6925 33.3859 59.1624 34.7289 56.4708 37.4127C54.2474 39.6296 52.9395 42.4163 52.5529 45.2933C52.1559 48.239 52.7204 51.2945 54.2428 53.9508C54.4252 54.2711 54.4872 54.6612 54.3851 55.0455L52.9579 60.3569L58.2537 58.9418C58.6197 58.8366 59.0258 58.8732 59.3826 59.0757C62.0466 60.5937 65.111 61.1565 68.0664 60.7607C70.9518 60.3752 73.7443 59.0722 75.97 56.853C78.6603 54.1704 80.0072 50.6505 80.0072 47.1328ZM9.48525 19.1472C7.8022 18.1874 6.37957 20.7224 8.02821 21.6616L13.0728 24.5649C14.7558 25.5247 16.1785 22.9897 14.5298 22.0505L9.48525 19.1472ZM20.9316 8.92254C19.9897 7.27868 17.4474 8.69718 18.4099 10.3754L21.3229 15.4053C22.2648 17.0492 24.8071 15.6307 23.8446 13.9525L20.9316 8.92254ZM61.107 21.4877C62.7556 20.5485 61.333 18.0135 59.65 18.9733L54.6054 21.8778C52.9567 22.817 54.3794 25.352 56.0624 24.3922L61.107 21.4877ZM50.6771 10.174C51.6397 8.49584 49.0973 7.07734 48.1554 8.7212L45.2436 13.7512C44.281 15.4293 46.8234 16.8478 47.7653 15.204L50.6771 10.174ZM35.9747 5.57419C35.9747 4.28152 34.3949 3.64205 33.5001 4.53433C33.2408 4.84435 33.0607 5.08686 33.0607 5.57419V11.3832C33.0607 12.6758 34.6405 13.3153 35.5353 12.423C35.7946 12.113 35.9747 11.8705 35.9747 11.3832V5.57419ZM30.1362 57.3552L32.5983 52.1479L5.97458 38.8735L3.3955 44.0991L30.1362 57.3552Z" fill="#BAACD6"/>
</g>
<defs>
<linearGradient id="paint0_linear_1_61" x1="71.1279" y1="17.1663" x2="37.0331" y2="35.4791" gradientUnits="userSpaceOnUse">
<stop stop-color="#D3CCE3"/>
<stop offset="1" stop-color="#E9E4F0"/>
</linearGradient>
<clipPath id="clip0_1_61">
<rect width="90" height="86" fill="white"/>
</clipPath>
</defs>
</svg>
