<svg width="92" height="76" viewBox="0 0 92 76" fill="none" xmlns="http://www.w3.org/2000/svg">
<path fill-rule="evenodd" clip-rule="evenodd" d="M32.0545 0.39971C40.3328 -0.744378 49.2633 0.409286 55.5264 5.93132C62.0896 11.7179 65.6689 20.6498 64.8961 29.3555C64.1723 37.5082 58.0368 43.7638 51.706 48.9669C46.0896 53.5829 39.3003 55.6869 32.0545 56.347C23.8241 57.0968 14.7485 58.253 8.4546 52.9074C1.86329 47.3092 -0.935137 37.9083 0.274575 29.3555C1.37046 21.6074 8.50241 16.9059 14.2929 11.63C19.6737 6.72732 24.8373 1.39716 32.0545 0.39971Z" fill="url(#paint0_linear_1_27401)"/>
<path d="M87.5 22H65C64.1709 22 63.5 22.6716 63.5 23.5C63.5 24.3284 64.1709 25 65 25H87.5C88.3276 25 89 25.6731 89 26.5V71.5C89 72.3269 88.3276 73 87.5 73H35C34.1724 73 33.5 72.3269 33.5 71.5V50.5C33.4809 48.5339 30.5248 48.5278 30.5 50.5001L30.5 71.5C30.5 73.9814 32.5186 76 35 76H87.5C89.9814 76 92 73.9814 92 71.5V26.5C92 24.0186 89.9814 22 87.5 22Z" fill="#B2C6E6"/>
<path d="M60.5 41.5V11.5C60.5 9.01855 58.4814 7 56 7H6.5C4.01855 7 2 9.01855 2 11.5V41.5C2 43.9814 4.01855 46 6.5 46H9.23486C9.77979 46 10.2808 46.2952 10.5459 46.772L14.5669 54.0076C16.1231 57.0575 20.8769 57.0617 22.4331 54.0082L26.4541 46.7712C26.7192 46.2952 27.2202 46 27.7651 46H56C58.4814 46 60.5 43.9814 60.5 41.5ZM23.832 45.3145L19.811 52.5515C19.4243 53.2473 18.7651 53.3228 18.5 53.3228C18.2349 53.3228 17.5757 53.2473 17.189 52.5508L13.168 45.3152C12.3755 43.887 10.8682 43 9.23486 43H6.5C5.67236 43 5 42.3269 5 41.5V11.5C5 10.6731 5.67236 10 6.5 10H56C56.8276 10 57.5 10.6731 57.5 11.5V41.5C57.5 42.3269 56.8276 43 56 43H27.7651C26.1318 43 24.6245 43.887 23.832 45.3145Z" fill="#B2C6E6"/>
<path d="M29 20.4997C28.8445 14.5659 20.1547 14.5671 20 20.4998C20.1555 26.4335 28.8453 26.4323 29 20.4997ZM23 20.4997C23.0349 18.5285 25.9654 18.5288 26 20.4998C25.9651 22.4709 23.0346 22.4706 23 20.4997Z" fill="#B2C6E6"/>
<path d="M36.4997 28C30.5659 28.1555 30.5671 36.8453 36.4998 37C42.4335 36.8445 42.4323 28.1547 36.4997 28ZM36.4997 34C34.5284 33.965 34.5287 31.0347 36.4998 31C38.471 31.035 38.4707 33.9653 36.4997 34Z" fill="#B2C6E6"/>
<path d="M37.3318 16.2514C36.6404 15.79 35.7102 15.9782 35.2517 16.6675L23.2517 34.6674C22.7918 35.3567 22.9778 36.2883 23.6677 36.7475C24.3482 37.2034 25.2858 37.0259 25.7478 36.3315L37.7478 18.3315C38.2078 17.6423 38.0217 16.7107 37.3318 16.2514Z" fill="#B2C6E6"/>
<path d="M68.7159 58.3003C64.1275 56.6746 59.3834 55.4507 54.6055 54.4017V50.5002C54.5725 48.5287 51.6382 48.5286 51.6055 50.5003V53.7958C48.9042 53.2812 46.1913 52.8217 43.4595 52.4829V50.5002C43.4268 48.5295 40.4923 48.528 40.4595 50.5003C40.4357 55.6982 39.9564 55.0604 45.0591 55.7202C45.0776 55.8559 45.0328 57.8609 45.0767 57.9182L45.9775 63.8347C46.0889 64.5678 46.7187 65.1091 47.46 65.1091H55.5591C56.6551 65.1425 57.4289 63.8569 56.8833 62.9045L53.8979 57.2965C58.4853 58.2822 63.0104 59.5177 67.4331 61.0119L70.8931 62.6679C71.1669 62.9552 75.5813 62.7632 76.0098 62.8152C76.8066 62.8151 77.4658 62.1911 77.5083 61.395L77.6416 58.8659C77.7169 57.5542 77.7588 56.2357 77.8073 54.9185C86.6663 53.7893 86.6534 41.1974 77.7991 40.0809C77.7343 38.4197 77.6606 36.7595 77.5537 35.1069L77.5083 34.2368C77.4658 33.4399 76.8081 32.8151 76.0098 32.8151C75.5575 32.8686 71.1879 32.6706 70.8887 32.9645L67.4346 34.6323C66.0656 35.2929 63.0489 35.2516 63.5688 37.4484C64.404 39.6302 67.19 37.6842 68.7118 37.347C69.028 44.2888 69.0312 51.3167 68.7159 58.3003ZM50.9463 58.0251C50.8668 58.0961 52.9976 61.9473 53.0615 62.1091H48.749L48.0591 57.5791V56.1818C48.9188 56.324 49.7758 56.4806 50.6319 56.6406L50.9463 58.0251ZM78.5 43.2573C82.4491 44.579 82.4471 50.4224 78.5 51.7431V43.2573ZM71.8833 35.8151H74.5918C75.0939 43.7919 75.0686 51.8521 74.5874 59.8151H71.8804L71.6634 59.7112C72.0641 51.7846 72.0579 43.7918 71.6539 35.9259L71.8833 35.8151Z" fill="#B2C6E6"/>
<defs>
<linearGradient id="paint0_linear_1_27401" x1="0" y1="28.5" x2="65" y2="28.5" gradientUnits="userSpaceOnUse">
<stop stop-color="#E0EAFC"/>
<stop offset="1" stop-color="#CFDEF3"/>
</linearGradient>
</defs>
</svg>
