<svg viewBox="-0.0001 8.5651 100.0004 82.8699" width="100.0004" height="82.8699" xmlns="http://www.w3.org/2000/svg" fill="#26A5E4">
  <path d="M 94.921 8.566 C 95.689 8.55 97.385 8.743 98.49 9.64 C 99.227 10.277 99.694 11.167 99.801 12.134 C 99.925 12.848 100.078 14.482 99.955 15.756 C 98.574 30.32 92.574 65.648 89.52 81.954 C 88.23 88.86 85.69 91.17 83.227 91.393 C 77.887 91.891 73.827 87.863 68.648 84.471 C 60.545 79.153 55.964 75.846 48.098 70.659 C 39.006 64.674 44.899 61.374 50.078 56.003 C 51.436 54.591 74.993 33.159 75.454 31.218 C 75.508 30.972 75.562 30.067 75.024 29.591 C 74.487 29.115 73.689 29.277 73.114 29.407 C 72.301 29.591 59.355 38.155 34.279 55.074 C 30.596 57.607 27.273 58.835 24.288 58.757 C 21.004 58.696 14.681 56.908 9.977 55.381 C 4.206 53.502 -0.374 52.512 0.024 49.327 C 0.232 47.67 2.518 45.973 6.878 44.239 C 33.719 32.546 51.613 24.833 60.575 21.112 C 86.143 10.477 91.46 8.627 94.921 8.566 Z"/>
</svg>