<svg viewBox="0 -0.0002 99.5252 100.0002" width="99.5252" height="100.0002" xmlns="http://www.w3.org/2000/svg" fill="#25D366">
  <path d="M 72.562 59.925 C 71.325 59.304 65.237 56.313 64.104 55.896 C 62.967 55.483 62.142 55.279 61.312 56.521 C 60.492 57.758 58.117 60.546 57.396 61.371 C 56.675 62.2 55.95 62.3 54.712 61.683 C 53.475 61.058 49.483 59.754 44.754 55.538 C 41.075 52.254 38.587 48.2 37.867 46.958 C 37.146 45.721 37.792 45.05 38.408 44.433 C 38.967 43.879 39.65 42.988 40.267 42.267 C 40.887 41.542 41.092 41.025 41.508 40.196 C 41.921 39.371 41.717 38.65 41.404 38.029 C 41.092 37.408 38.617 31.313 37.587 28.833 C 36.579 26.421 35.558 26.75 34.8 26.708 C 34.079 26.675 33.254 26.667 32.425 26.667 C 31.6 26.667 30.258 26.975 29.125 28.217 C 27.992 29.454 24.792 32.45 24.792 38.546 C 24.792 44.638 29.229 50.525 29.846 51.354 C 30.467 52.179 38.579 64.688 51 70.05 C 53.954 71.325 56.258 72.087 58.058 72.654 C 61.025 73.6 63.725 73.467 65.854 73.146 C 68.233 72.792 73.179 70.15 74.212 67.258 C 75.246 64.367 75.246 61.888 74.933 61.371 C 74.625 60.854 73.8 60.546 72.558 59.925 M 49.971 90.771 L 49.954 90.771 C 42.579 90.771 35.337 88.787 28.992 85.029 L 27.487 84.137 L 11.9 88.229 L 16.058 73.029 L 15.079 71.471 C 10.954 64.904 8.775 57.308 8.787 49.554 C 8.792 26.846 27.271 8.371 49.987 8.371 C 60.987 8.371 71.329 12.663 79.104 20.446 C 86.854 28.163 91.191 38.654 91.158 49.588 C 91.146 72.296 72.671 90.771 49.971 90.771 M 85.025 14.533 C 75.75 5.2 63.129 -0.033 49.971 0 C 22.658 0 0.429 22.229 0.417 49.55 C 0.417 58.283 2.696 66.808 7.033 74.321 L 0 100 L 26.271 93.108 C 33.537 97.067 41.675 99.142 49.95 99.142 L 49.971 99.142 C 77.279 99.142 99.512 76.912 99.525 49.588 C 99.566 36.438 94.346 23.813 85.025 14.533 Z"/>
</svg>